%TF.GenerationSoftware,KiCad,Pcbnew,9.0.6*%
%TF.CreationDate,2026-01-17T17:56:27+00:00*%
%TF.ProjectId,AMP-Series,414d502d-5365-4726-9965-732e6b696361,rev?*%
%TF.SameCoordinates,Original*%
%TF.FileFunction,Copper,L1,Top*%
%TF.FilePolarity,Positive*%
%FSLAX46Y46*%
G04 Gerber Fmt 4.6, Leading zero omitted, Abs format (unit mm)*
G04 Created by KiCad (PCBNEW 9.0.6) date 2026-01-17 17:56:27*
%MOMM*%
%LPD*%
G01*
G04 APERTURE LIST*
G04 Aperture macros list*
%AMRoundRect*
0 Rectangle with rounded corners*
0 $1 Rounding radius*
0 $2 $3 $4 $5 $6 $7 $8 $9 X,Y pos of 4 corners*
0 Add a 4 corners polygon primitive as box body*
4,1,4,$2,$3,$4,$5,$6,$7,$8,$9,$2,$3,0*
0 Add four circle primitives for the rounded corners*
1,1,$1+$1,$2,$3*
1,1,$1+$1,$4,$5*
1,1,$1+$1,$6,$7*
1,1,$1+$1,$8,$9*
0 Add four rect primitives between the rounded corners*
20,1,$1+$1,$2,$3,$4,$5,0*
20,1,$1+$1,$4,$5,$6,$7,0*
20,1,$1+$1,$6,$7,$8,$9,0*
20,1,$1+$1,$8,$9,$2,$3,0*%
G04 Aperture macros list end*
%TA.AperFunction,Conductor*%
%ADD10C,0.200000*%
%TD*%
%TA.AperFunction,ComponentPad*%
%ADD11O,2.000000X2.000000*%
%TD*%
%TA.AperFunction,ComponentPad*%
%ADD12R,2.000000X2.000000*%
%TD*%
%TA.AperFunction,SMDPad,CuDef*%
%ADD13RoundRect,0.090000X-0.685000X-0.210000X0.685000X-0.210000X0.685000X0.210000X-0.685000X0.210000X0*%
%TD*%
G04 APERTURE END LIST*
D10*
%TO.N,unconnected-(U1-Ref-Pad5)*%
X33500000Y-25500000D02*
X34500000Y-26000000D01*
%TO.N,unconnected-(U1---Pad2)*%
X29000000Y-18500000D02*
X28500000Y-18000000D01*
%TO.N,unconnected-(U1-V--Pad4)*%
X34000000Y-19000000D02*
X34000000Y-18500000D01*
%TO.N,unconnected-(U1---Pad2)*%
X29000000Y-19000000D02*
X29000000Y-18500000D01*
X24500000Y-21500000D02*
X26000000Y-23000000D01*
%TO.N,unconnected-(U1-Rg-Pad1)*%
X26000000Y-21500000D02*
X26000000Y-20750000D01*
X26750000Y-21750000D02*
X26000000Y-21500000D01*
%TO.N,unconnected-(U1---Pad2)*%
X26000000Y-23000000D02*
X27000000Y-23000000D01*
%TO.N,unconnected-(U1-+-Pad3)*%
X31500000Y-19000000D02*
X31500000Y-18500000D01*
%TO.N,unconnected-(U1-Ref-Pad5)*%
X34500000Y-26000000D02*
X34500000Y-26500000D01*
%TD*%
D11*
%TO.P,U1,T1*%
%TO.N,unconnected-(U1-Rg-Pad1)*%
X26380000Y-19880000D03*
D12*
%TO.P,U1,T8*%
%TO.N,unconnected-(U1-Rg-Pad8)*%
X26380000Y-27500000D03*
%TO.P,U1,T7*%
%TO.N,unconnected-(U1-V+-Pad7)*%
X28920000Y-27500000D03*
%TO.P,U1,T6*%
%TO.N,unconnected-(U1-Pad6)*%
X31460000Y-27500000D03*
%TO.P,U1,T5*%
%TO.N,unconnected-(U1-Ref-Pad5)*%
X34000000Y-27500000D03*
%TO.P,U1,T4*%
%TO.N,unconnected-(U1-V--Pad4)*%
X34000000Y-19880000D03*
%TO.P,U1,T3*%
%TO.N,unconnected-(U1-+-Pad3)*%
X31460000Y-19880000D03*
%TO.P,U1,T2*%
%TO.N,unconnected-(U1---Pad2)*%
X28920000Y-19880000D03*
D13*
%TO.P,U1,8,Rg*%
%TO.N,unconnected-(U1-Rg-Pad8)*%
X32855000Y-21810000D03*
%TO.P,U1,7,V+*%
%TO.N,unconnected-(U1-V+-Pad7)*%
X32855000Y-23080000D03*
%TO.P,U1,6*%
%TO.N,unconnected-(U1-Pad6)*%
X32855000Y-24350000D03*
%TO.P,U1,5,Ref*%
%TO.N,unconnected-(U1-Ref-Pad5)*%
X32855000Y-25620000D03*
%TO.P,U1,4,V-*%
%TO.N,unconnected-(U1-V--Pad4)*%
X27455000Y-25620000D03*
%TO.P,U1,3,+*%
%TO.N,unconnected-(U1-+-Pad3)*%
X27455000Y-24350000D03*
%TO.P,U1,2,-*%
%TO.N,unconnected-(U1---Pad2)*%
X27455000Y-23080000D03*
%TO.P,U1,1,Rg*%
%TO.N,unconnected-(U1-Rg-Pad1)*%
X27455000Y-21810000D03*
%TD*%
D10*
%TO.N,unconnected-(U1-Rg-Pad8)*%
X26380000Y-29682000D02*
X26380000Y-27500000D01*
X26998000Y-30300000D02*
X26380000Y-29682000D01*
X37100000Y-24400000D02*
X37100000Y-29000000D01*
X35800000Y-30300000D02*
X26998000Y-30300000D01*
X34330000Y-21630000D02*
X37100000Y-24400000D01*
X37100000Y-29000000D02*
X35800000Y-30300000D01*
X33569999Y-21630000D02*
X34330000Y-21630000D01*
%TO.N,unconnected-(U1-V+-Pad7)*%
X29514000Y-29768000D02*
X28920000Y-29174000D01*
X35664900Y-29768000D02*
X29514000Y-29768000D01*
X36418000Y-24818000D02*
X36418000Y-29014900D01*
X34680000Y-23080000D02*
X36418000Y-24818000D01*
X32855000Y-23080000D02*
X34680000Y-23080000D01*
X36418000Y-29014900D02*
X35664900Y-29768000D01*
X28920000Y-29174000D02*
X28920000Y-27500000D01*
%TO.N,unconnected-(U1-Pad6)*%
X31460000Y-28920000D02*
X31460000Y-27500000D01*
X35450900Y-29260000D02*
X31800000Y-29260000D01*
X31800000Y-29260000D02*
X31460000Y-28920000D01*
X35910000Y-28800900D02*
X35450900Y-29260000D01*
X35910000Y-25610000D02*
X35910000Y-28800900D01*
X34684000Y-24384000D02*
X35910000Y-25610000D01*
X34002000Y-24350000D02*
X34036000Y-24384000D01*
X34036000Y-24384000D02*
X34684000Y-24384000D01*
X32855000Y-24350000D02*
X34002000Y-24350000D01*
%TO.N,unconnected-(U1-V--Pad4)*%
X33500000Y-17000000D02*
X34000000Y-17500000D01*
X23500000Y-18000000D02*
X24500000Y-17000000D01*
X34000000Y-17500000D02*
X34000000Y-18500000D01*
X26120000Y-25620000D02*
X23500000Y-23000000D01*
X23500000Y-23000000D02*
X23500000Y-18000000D01*
X24500000Y-17000000D02*
X33500000Y-17000000D01*
X27455000Y-25620000D02*
X26120000Y-25620000D01*
%TO.N,unconnected-(U1-+-Pad3)*%
X31500000Y-18000000D02*
X31500000Y-18579000D01*
X31000000Y-17500000D02*
X31500000Y-18000000D01*
X24750000Y-17500000D02*
X31000000Y-17500000D01*
X24000000Y-22000000D02*
X24000000Y-18250000D01*
X24000000Y-18250000D02*
X24750000Y-17500000D01*
X26350000Y-24350000D02*
X24000000Y-22000000D01*
X27455000Y-24350000D02*
X26350000Y-24350000D01*
%TO.N,unconnected-(U1---Pad2)*%
X24500000Y-18500000D02*
X24500000Y-21500000D01*
X28500000Y-18000000D02*
X25000000Y-18000000D01*
X25000000Y-18000000D02*
X24500000Y-18500000D01*
%TD*%
M02*
