%TF.GenerationSoftware,KiCad,Pcbnew,9.0.6*%
%TF.CreationDate,2026-02-28T15:16:26+05:45*%
%TF.ProjectId,AMP-Series,414d502d-5365-4726-9965-732e6b696361,rev?*%
%TF.SameCoordinates,Original*%
%TF.FileFunction,Copper,L1,Top*%
%TF.FilePolarity,Positive*%
%FSLAX46Y46*%
G04 Gerber Fmt 4.6, Leading zero omitted, Abs format (unit mm)*
G04 Created by KiCad (PCBNEW 9.0.6) date 2026-02-28 15:16:26*
%MOMM*%
%LPD*%
G01*
G04 APERTURE LIST*
G04 Aperture macros list*
%AMRoundRect*
0 Rectangle with rounded corners*
0 $1 Rounding radius*
0 $2 $3 $4 $5 $6 $7 $8 $9 X,Y pos of 4 corners*
0 Add a 4 corners polygon primitive as box body*
4,1,4,$2,$3,$4,$5,$6,$7,$8,$9,$2,$3,0*
0 Add four circle primitives for the rounded corners*
1,1,$1+$1,$2,$3*
1,1,$1+$1,$4,$5*
1,1,$1+$1,$6,$7*
1,1,$1+$1,$8,$9*
0 Add four rect primitives between the rounded corners*
20,1,$1+$1,$2,$3,$4,$5,0*
20,1,$1+$1,$4,$5,$6,$7,0*
20,1,$1+$1,$6,$7,$8,$9,0*
20,1,$1+$1,$8,$9,$2,$3,0*%
G04 Aperture macros list end*
%TA.AperFunction,SMDPad,CuDef*%
%ADD10RoundRect,0.090000X-0.685000X-0.210000X0.685000X-0.210000X0.685000X0.210000X-0.685000X0.210000X0*%
%TD*%
%TA.AperFunction,ComponentPad*%
%ADD11R,2.000000X2.000000*%
%TD*%
%TA.AperFunction,ComponentPad*%
%ADD12C,1.600000*%
%TD*%
%TA.AperFunction,Conductor*%
%ADD13C,0.200000*%
%TD*%
G04 APERTURE END LIST*
D10*
%TO.P,U1,1,Rg*%
%TO.N,Net-(R1-Pad1)*%
X27455000Y-21810000D03*
%TO.P,U1,2,-*%
%TO.N,unconnected-(U1---Pad2)*%
X27455000Y-23080000D03*
%TO.P,U1,3,+*%
%TO.N,unconnected-(U1-+-Pad3)*%
X27455000Y-24350000D03*
%TO.P,U1,4,V-*%
%TO.N,unconnected-(U1-V--Pad4)*%
X27455000Y-25620000D03*
%TO.P,U1,5,Ref*%
%TO.N,unconnected-(U1-Ref-Pad5)*%
X32855000Y-25620000D03*
%TO.P,U1,6*%
%TO.N,unconnected-(U1-Pad6)*%
X32855000Y-24350000D03*
%TO.P,U1,7,V+*%
%TO.N,unconnected-(U1-V+-Pad7)*%
X32855000Y-23080000D03*
%TO.P,U1,8,Rg*%
%TO.N,Net-(R1-Pad2)*%
X32855000Y-21810000D03*
D11*
%TO.P,U1,T2*%
%TO.N,unconnected-(U1---Pad2)*%
X25085000Y-21658000D03*
%TO.P,U1,T3*%
%TO.N,unconnected-(U1-+-Pad3)*%
X25085000Y-24198000D03*
%TO.P,U1,T4*%
%TO.N,unconnected-(U1-V--Pad4)*%
X25085000Y-26738000D03*
%TO.P,U1,T5*%
%TO.N,unconnected-(U1-Ref-Pad5)*%
X35245000Y-26738000D03*
%TO.P,U1,T6*%
%TO.N,unconnected-(U1-Pad6)*%
X35245000Y-24198000D03*
%TO.P,U1,T7*%
%TO.N,unconnected-(U1-V+-Pad7)*%
X35245000Y-21658000D03*
%TD*%
D12*
%TO.P,R1,1*%
%TO.N,Net-(R1-Pad1)*%
X26290000Y-19200000D03*
%TO.P,R1,2*%
%TO.N,Net-(R1-Pad2)*%
X33910000Y-19200000D03*
%TD*%
D13*
%TO.N,unconnected-(U1-Ref-Pad5)*%
X34608000Y-26769000D02*
X34577000Y-26738000D01*
%TO.N,unconnected-(U1-Pad6)*%
X33644000Y-24431000D02*
X34428500Y-23646500D01*
X32696000Y-24431000D02*
X33644000Y-24431000D01*
%TO.N,Net-(R1-Pad1)*%
X27455000Y-19865000D02*
X26790000Y-19200000D01*
%TO.N,Net-(R1-Pad2)*%
X33910000Y-19200000D02*
X33510000Y-19200000D01*
X33510000Y-19200000D02*
X32855000Y-19855000D01*
%TO.N,unconnected-(U1-Pad6)*%
X34980000Y-24198000D02*
X34428500Y-23646500D01*
X35045000Y-24198000D02*
X34980000Y-24198000D01*
%TO.N,unconnected-(U1-Ref-Pad5)*%
X35045000Y-26738000D02*
X34577000Y-26738000D01*
%TO.N,Net-(R1-Pad1)*%
X27455000Y-21810000D02*
X27455000Y-19865000D01*
%TO.N,unconnected-(U1-Ref-Pad5)*%
X34577000Y-26738000D02*
X33570000Y-25731000D01*
%TO.N,unconnected-(U1-V+-Pad7)*%
X32641000Y-23111000D02*
X33589000Y-23111000D01*
%TO.N,unconnected-(U1-V--Pad4)*%
X25714000Y-26738000D02*
X26752000Y-25700000D01*
X26752000Y-25700000D02*
X27700000Y-25700000D01*
%TO.N,Net-(R1-Pad2)*%
X32855000Y-19855000D02*
X32855000Y-21810000D01*
%TO.N,unconnected-(U1-Ref-Pad5)*%
X33570000Y-25731000D02*
X32622000Y-25731000D01*
%TO.N,unconnected-(U1-+-Pad3)*%
X26678000Y-24400000D02*
X25893500Y-23615500D01*
%TO.N,unconnected-(U1-V--Pad4)*%
X25311000Y-26738000D02*
X25714000Y-26738000D01*
%TO.N,unconnected-(U1-+-Pad3)*%
X25893500Y-23615500D02*
X25311000Y-24198000D01*
%TO.N,Net-(R1-Pad1)*%
X26790000Y-19200000D02*
X26290000Y-19200000D01*
%TO.N,unconnected-(U1-+-Pad3)*%
X27626000Y-24400000D02*
X26678000Y-24400000D01*
%TO.N,unconnected-(U1-V+-Pad7)*%
X33589000Y-23111000D02*
X35011000Y-21689000D01*
%TO.N,unconnected-(U1---Pad2)*%
X26733000Y-23080000D02*
X25311000Y-21658000D01*
X27681000Y-23080000D02*
X26733000Y-23080000D01*
%TD*%
M02*
